<?xml version="1.0" standalone="no"?>
<!DOCTYPE svg PUBLIC "-//W3C//DTD SVG 20010904//EN"
 "http://www.w3.org/TR/2001/REC-SVG-20010904/DTD/svg10.dtd">
<svg version="1.0" xmlns="http://www.w3.org/2000/svg"
 width="512.000000pt" height="512.000000pt" viewBox="0 0 512.000000 512.000000"
 preserveAspectRatio="xMidYMid meet">

<g transform="translate(0.000000,512.000000) scale(0.100000,-0.100000)"
fill="#000000" stroke="none">
<path d="M2380 5114 c-19 -2 -78 -9 -130 -14 -330 -36 -695 -160 -990 -336
-375 -224 -680 -529 -904 -904 -175 -292 -291 -632 -338 -990 -16 -123 -16
-497 0 -620 82 -623 356 -1150 820 -1581 256 -239 575 -425 922 -539 274 -91
491 -124 800 -124 228 0 329 9 530 50 689 141 1304 583 1674 1204 175 292 291
632 338 990 16 123 16 497 0 620 -47 358 -163 698 -338 990 -224 375 -529 680
-904 904 -289 173 -634 291 -980 336 -88 12 -438 21 -500 14z m385 -304 c583
-54 1146 -347 1517 -790 383 -456 571 -1029 530 -1610 -6 -92 -15 -175 -18
-184 -5 -14 -37 -16 -273 -16 l-266 1 -35 61 c-150 261 -514 288 -706 51 -86
-105 -115 -259 -76 -390 77 -253 357 -377 597 -264 81 38 142 95 189 175 l39
66 228 0 c138 0 229 -4 229 -10 0 -5 -16 -53 -35 -107 -73 -203 -212 -453
-349 -627 l-46 -59 0 169 c0 146 -3 174 -19 204 -29 55 -64 75 -131 75 -67 0
-102 -20 -131 -75 -17 -32 -19 -62 -19 -352 l0 -318 -87 -65 -88 -65 -5 288
c-5 276 -6 288 -28 323 -54 88 -184 91 -246 6 -20 -27 -21 -44 -26 -409 l-5
-381 -70 -30 c-60 -25 -232 -87 -242 -87 -2 0 -3 585 -3 1300 l0 1300 189 0
190 0 32 -67 c114 -239 413 -322 629 -175 201 137 250 414 107 608 -51 69 -96
105 -173 141 -138 63 -316 41 -441 -54 -20 -15 -57 -55 -81 -88 l-44 -60 -303
-5 c-288 -5 -305 -6 -332 -26 -15 -11 -38 -36 -50 -54 l-23 -33 0 -1427 0
-1427 -57 -7 c-631 -71 -1247 115 -1733 522 -542 454 -842 1163 -792 1872 6
92 15 175 18 184 5 14 37 16 273 16 l266 -1 35 -61 c150 -261 514 -288 706
-51 86 105 115 259 76 390 -77 253 -357 377 -597 264 -81 -38 -142 -95 -189
-175 l-39 -66 -228 0 c-138 0 -229 4 -229 10 0 5 16 53 35 107 73 203 212 453
349 627 l46 59 0 -112 c0 -98 3 -119 22 -152 23 -41 84 -79 128 -79 44 0 105
38 128 79 21 37 22 50 22 299 l0 260 43 34 c23 19 63 49 89 66 l47 32 3 -234
c3 -219 4 -236 24 -262 68 -92 185 -97 247 -10 21 30 22 40 27 355 l5 324 70
30 c62 25 203 77 212 77 2 0 3 -592 3 -1315 l0 -1315 -182 0 -183 0 -28 54
c-33 64 -114 144 -178 176 -220 113 -480 25 -587 -199 -136 -284 73 -611 390
-611 157 0 303 88 375 227 l28 53 276 0 c270 0 277 1 309 23 18 12 43 35 54
50 l21 28 3 1449 2 1449 33 6 c129 23 370 30 532 15z m1296 -1598 c85 -49 75
-183 -17 -227 -108 -51 -225 68 -170 173 39 75 114 97 187 54z m-2720 -40 c85
-49 75 -183 -17 -227 -108 -51 -225 68 -170 173 39 75 114 97 187 54z m2582
-1008 c77 -58 73 -167 -8 -220 -80 -52 -195 14 -195 111 0 105 122 169 203
109z m-2729 -113 c87 -58 86 -180 -3 -226 -113 -58 -234 63 -176 176 33 63
121 88 179 50z"/>
<path d="M3230 4585 c-216 -53 -362 -281 -318 -496 l14 -67 -249 -208 c-196
-163 -254 -217 -268 -249 -18 -38 -19 -91 -19 -1002 l0 -961 -102 -55 -101
-55 -40 29 c-168 122 -427 91 -566 -68 -244 -277 -49 -713 318 -713 78 0 143
15 202 46 135 69 229 224 229 375 l0 67 143 77 c78 42 158 92 177 111 l35 34
5 995 5 994 170 142 c94 78 188 157 211 175 l40 33 74 -25 c64 -23 87 -26 165
-22 75 3 101 9 155 35 157 74 250 216 252 382 1 173 -89 321 -237 392 -102 48
-193 59 -295 34z m160 -300 c66 -34 92 -119 55 -182 -52 -88 -185 -82 -228 10
-22 46 -21 75 3 115 39 64 110 88 170 57z m-1423 -3006 c41 -25 63 -66 63
-114 0 -133 -184 -174 -245 -55 -31 61 -6 139 56 172 44 24 84 23 126 -3z"/>
</g>
</svg>
